<?xml version="1.0" encoding="utf-8"?>
<!-- Generator: Adobe Illustrator 25.2.3, SVG Export Plug-In . SVG Version: 6.00 Build 0)  -->
<!DOCTYPE svg PUBLIC "-//W3C//DTD SVG 1.1//EN" "http://www.w3.org/Graphics/SVG/1.1/DTD/svg11.dtd" [
	<!ENTITY ns_extend "http://ns.adobe.com/Extensibility/1.0/">
	<!ENTITY ns_ai "http://ns.adobe.com/AdobeIllustrator/10.0/">
	<!ENTITY ns_graphs "http://ns.adobe.com/Graphs/1.0/">
	<!ENTITY ns_vars "http://ns.adobe.com/Variables/1.0/">
	<!ENTITY ns_imrep "http://ns.adobe.com/ImageReplacement/1.0/">
	<!ENTITY ns_sfw "http://ns.adobe.com/SaveForWeb/1.0/">
	<!ENTITY ns_custom "http://ns.adobe.com/GenericCustomNamespace/1.0/">
	<!ENTITY ns_adobe_xpath "http://ns.adobe.com/XPath/1.0/">
]>
<svg version="1.1" id="Layer_1" xmlns:x="&ns_extend;" xmlns:i="&ns_ai;" xmlns:graph="&ns_graphs;"
	 xmlns="http://www.w3.org/2000/svg" xmlns:xlink="http://www.w3.org/1999/xlink" x="0px" y="0px" viewBox="0 0 50.7 50.7"
	 style="enable-background:new 0 0 50.7 50.7;" xml:space="preserve">
<style type="text/css">
	.st0{fill:#1D1D20;}
</style>
<metadata>
	<sfw  xmlns="&ns_sfw;">
		<slices></slices>
		<sliceSourceBounds  bottomLeftOrigin="true" height="34.4" width="35.6" x="7.6" y="-42.6"></sliceSourceBounds>
	</sfw>
</metadata>
<g>
	<g>
		<path class="st0" d="M20.9,38.5c0,1.1,0,2.2,0,3.3c0,0.6-0.6,1-1.3,0.7c-1.9-0.6-3.6-1.5-5.2-2.8c-3.7-2.9-6-6.7-6.7-11.3
			C6.5,19.5,12,11.2,20.6,8.8c9.2-2.5,18.8,2.6,21.7,11.7c2.9,9.1-2.1,18.9-11.1,22c-0.9,0.3-1.4-0.1-1.4-1c0-1.3,0-2.6,0-4
			c0-1.4-0.1-2.8-1.2-3.9c0.7-0.1,1.3-0.2,1.9-0.3c1.9-0.4,3.6-1.2,4.8-2.9c0.8-1.2,1.2-2.6,1.3-4c0.1-0.9,0.1-1.8,0-2.6
			c-0.1-1.2-0.7-2.3-1.5-3.2c-0.2-0.2-0.2-0.4-0.1-0.6c0.4-1.4,0.3-2.8-0.2-4.1c-0.1-0.1-0.3-0.3-0.4-0.3c-0.8,0-1.6,0.3-2.4,0.6
			c-0.6,0.3-1.2,0.7-1.9,1c-0.2,0.1-0.4,0.1-0.5,0.1c-2.8-0.7-5.6-0.7-8.4,0c-0.2,0-0.4,0-0.6-0.1c-1.2-0.7-2.4-1.4-3.7-1.6
			c-0.1,0-0.2,0-0.3,0c-0.4-0.1-0.6,0.1-0.7,0.5c-0.4,1.3-0.5,2.6-0.1,4c0,0.1,0,0.3-0.1,0.4c-1.6,1.8-1.9,4-1.6,6.3
			c0.2,1.5,0.6,2.9,1.6,4c1.1,1.5,2.7,2.2,4.5,2.6c0.6,0.1,1.2,0.2,1.9,0.4c-0.6,0.6-0.9,1.4-1.1,2.2c0,0.1-0.2,0.2-0.3,0.2
			c-2,0.8-3.8,0.3-4.9-1.5c-0.6-0.9-1.3-1.6-2.4-1.8c-0.3-0.1-0.5-0.1-0.8,0c-0.4,0.1-0.5,0.3-0.2,0.6c0.1,0.1,0.2,0.2,0.4,0.3
			c1,0.6,1.5,1.4,2,2.4c0.7,1.6,2,2.4,3.6,2.5C19.3,38.6,20.1,38.5,20.9,38.5z"/>
	</g>
</g>
</svg>
