<?xml version="1.0" encoding="utf-8"?>
<!-- Generator: Adobe Illustrator 25.2.3, SVG Export Plug-In . SVG Version: 6.00 Build 0)  -->
<!DOCTYPE svg PUBLIC "-//W3C//DTD SVG 1.1//EN" "http://www.w3.org/Graphics/SVG/1.1/DTD/svg11.dtd" [
	<!ENTITY ns_extend "http://ns.adobe.com/Extensibility/1.0/">
	<!ENTITY ns_ai "http://ns.adobe.com/AdobeIllustrator/10.0/">
	<!ENTITY ns_graphs "http://ns.adobe.com/Graphs/1.0/">
	<!ENTITY ns_vars "http://ns.adobe.com/Variables/1.0/">
	<!ENTITY ns_imrep "http://ns.adobe.com/ImageReplacement/1.0/">
	<!ENTITY ns_sfw "http://ns.adobe.com/SaveForWeb/1.0/">
	<!ENTITY ns_custom "http://ns.adobe.com/GenericCustomNamespace/1.0/">
	<!ENTITY ns_adobe_xpath "http://ns.adobe.com/XPath/1.0/">
]>
<svg version="1.1" id="Layer_1" xmlns:x="&ns_extend;" xmlns:i="&ns_ai;" xmlns:graph="&ns_graphs;"
	 xmlns="http://www.w3.org/2000/svg" xmlns:xlink="http://www.w3.org/1999/xlink" x="0px" y="0px" viewBox="0 0 99.7 99.7"
	 style="enable-background:new 0 0 99.7 99.7;" xml:space="preserve">
<style type="text/css">
	.st0{fill:#DF6227;}
	.st1{fill:#FFFCFB;}
</style>
<metadata>
	<sfw  xmlns="&ns_sfw;">
		<slices></slices>
		<sliceSourceBounds  bottomLeftOrigin="true" height="99.7" width="99.7" x="0" y="-99.7"></sliceSourceBounds>
	</sfw>
</metadata>
<circle class="st0" cx="49.9" cy="49.9" r="49.9"/>
<path class="st1" d="M23.6,54.6c1.8-0.4,1.7-1.9,2.1-3.2c-0.7,0-0.9,0.6-1.4,0.8c-0.6,0.3-1.1,0.4-1.7,0.4c-0.6,0-1.1,0-1.6,0
	c-0.7-0.4-1.4-0.7-2.2-1.1c-0.8-1.7-2-3.4-1.4-5.5c0.7-2.3,1-2.6,3.8-4.2c1.9-0.4,3.4,0.4,4.7,1.6c0.3-0.3,0.1-0.7,0.3-1.1
	c0.6-0.3,1.5,0.1,2.4-0.2c0,3.4,0.1,6.7-0.1,10c0,0.7-0.3,1.5-0.5,2.3c-0.5,1.6-1.9,2.2-3.3,2.6c-2.2,0.6-2.2,0.5-4.5,0
	c-1.2-0.3-1.9-1.2-2.7-2c0.2-0.8,0.9-1,1.2-1.6C20.3,54.3,21.8,55.1,23.6,54.6z"/>
<path class="st1" d="M65.5,52.6c-0.8,0-1.4,0-2.3,0c-0.2-0.2-0.4-0.6-0.5-0.7c-1.3-0.4-1.9,0.7-2.8,0.7c-1,0-2,0-2.7,0
	c-1.8-0.7-2.7-2-3.4-4.1c-0.2-2.6-0.2-5.6,4-6.9c0.3,0,1,0,1.6,0c0.9,0.4,1.6,0.8,2.4,1.2c0-1.6,0-3.2,0-4.9c1,0,1.9,0,3,0
	c0,4,0,8,0,12c0.3,0.1,0.5,0.1,0.8,0.2C65.5,50.9,65.5,51.6,65.5,52.6z"/>
<path class="st1" d="M32.2,52.6c-1.1-0.9-1.6-1.9-1.5-3.4c0.1-2.3,0-4.6,0-7c0.8,0,1.6,0,2.5,0c0,1.7,0,3.3,0,5c0,1,0.4,1.9,0.9,2.8
	c0.8,0,1.5,0,2.3,0c0.3-0.3,0.7-0.7,1-1c0-2.2,0-4.5,0-6.8c0.9,0,1.9,0,2.9,0c0,2.4,0,4.9,0,7.2c0.3,0.3,0.6,0.6,0.8,0.8
	c0,0.7,0,1.5,0,2.3c-0.8,0-1.5,0-2.4,0c-0.5-0.2-0.4-0.9-0.9-1.3c-0.6,0.4-1.2,1-2.2,1.4C34.7,52.6,33.4,52.6,32.2,52.6z"/>
<path class="st1" d="M48,37.9c0.9,0,1.8,0,2.9,0c0,3.1,0,6.1,0,9.2c0,0.7,0,1.4,0,2.1c0,0.4,0.4,0.5,0.6,0.9c0.6,0,1.2,0,1.9,0
	c0,0.7,0,1.3,0,2c-0.6,0.9-1.8,0.6-2.7,0.8c-1.2,0.3-1.9-1-2.7-1.7C48,46.7,48,42.4,48,37.9z"/>
<path class="st1" d="M11.6,47.3c1.4,1.1,3.1,1.6,4.2,2.9c0,1,0,1.9,0,2.9c-3.1-1.4-5.7-3.4-8.7-5c-0.2-0.3,0.1-0.8-0.2-1.4
	c2.9-1.9,5.7-3.7,8.9-5.5c0,1.2,0,2.1,0,3.1C14.5,45.4,13.1,46.3,11.6,47.3z"/>
<path class="st1" d="M80,38.4c1,0,1.9,0,3,0c-1.3,2.7-3.2,5-4.9,7.3c-1.7,2.3-2.9,5-5.1,6.9c-0.9,0-1.8,0-2.9,0
	c1.3-2.7,3.3-4.9,4.9-7.3C76.6,42.9,78,40.4,80,38.4z"/>
<path class="st1" d="M83.4,53.3c0-1.3,0-2.4,0-3.4c1.4-0.8,2.8-1.6,4.3-2.5c-1.5-1-2.9-1.9-4.3-2.8c0-1,0-1.9,0-3.1
	c3.1,1.7,5.9,3.5,8.6,5.3c0.3,0.2,0.1,0.5,0.1,0.8c-0.1,0.4-0.4,0.7-0.8,0.9C88.8,50.1,86.2,51.6,83.4,53.3z"/>
<path class="st1" d="M45.7,52.6c-0.9,0-1.8,0-2.9,0c0-1.9-0.1-3.8,0-5.6c0.1-1.7-0.4-3.6,0.4-5.3c0.9,0,1.7,0,2.5,0
	C45.7,45.3,45.7,48.9,45.7,52.6z"/>
<path class="st1" d="M45.8,40.8c-1.1,0-1.9,0-2.9,0c-0.2-0.9,0-1.9-0.1-2.9c1,0,1.9,0,2.9,0C45.9,38.9,45.7,39.8,45.8,40.8z"/>
<circle class="st0" cx="22.5" cy="47.4" r="2.5"/>
<circle class="st0" cx="58.7" cy="47.4" r="2.5"/>
</svg>
