<?xml version="1.0" encoding="utf-8"?>
<!-- Generator: Adobe Illustrator 25.2.3, SVG Export Plug-In . SVG Version: 6.00 Build 0)  -->
<!DOCTYPE svg PUBLIC "-//W3C//DTD SVG 1.1//EN" "http://www.w3.org/Graphics/SVG/1.1/DTD/svg11.dtd" [
	<!ENTITY ns_extend "http://ns.adobe.com/Extensibility/1.0/">
	<!ENTITY ns_ai "http://ns.adobe.com/AdobeIllustrator/10.0/">
	<!ENTITY ns_graphs "http://ns.adobe.com/Graphs/1.0/">
	<!ENTITY ns_vars "http://ns.adobe.com/Variables/1.0/">
	<!ENTITY ns_imrep "http://ns.adobe.com/ImageReplacement/1.0/">
	<!ENTITY ns_sfw "http://ns.adobe.com/SaveForWeb/1.0/">
	<!ENTITY ns_custom "http://ns.adobe.com/GenericCustomNamespace/1.0/">
	<!ENTITY ns_adobe_xpath "http://ns.adobe.com/XPath/1.0/">
]>
<svg version="1.1" id="Layer_1" xmlns:x="&ns_extend;" xmlns:i="&ns_ai;" xmlns:graph="&ns_graphs;"
	 xmlns="http://www.w3.org/2000/svg" xmlns:xlink="http://www.w3.org/1999/xlink" x="0px" y="0px" viewBox="0 0 50.7 50.7"
	 style="enable-background:new 0 0 50.7 50.7;" xml:space="preserve">
<style type="text/css">
	.st0{fill:#1D1D20;}
	.st1{fill:#FFFFFF;}
</style>
<metadata>
	<sfw  xmlns="&ns_sfw;">
		<slices></slices>
		<sliceSourceBounds  bottomLeftOrigin="true" height="41" width="40.8" x="5" y="-45.9"></sliceSourceBounds>
	</sfw>
</metadata>
<rect x="6.4" y="9.2" class="st0" width="37.2" height="34.5"/>
<g>
	<g>
		<path class="st1" d="M45.7,45.9c-13.3,0-26.7,0-40,0c-0.7,0-0.8-0.1-0.8-0.8C5,31.7,5,18.3,5,4.9c13.2,0,26.4,0,39.7,0
			c0.9,0,1.1,0.2,1.1,1.1C45.7,19.3,45.7,32.6,45.7,45.9z M36.3,42.6c0.7,0,1.3,0,2-0.2c2.2-0.5,3.8-1.6,4.3-3.9
			c0.5-2.3-0.1-4.3-2.1-5.8c-0.8-0.6-1.8-1-2.7-1.5c-0.8-0.4-1.6-0.7-2.4-1.1c-0.5-0.3-1-0.7-1-1.4c-0.1-0.7,0.1-1.3,0.8-1.7
			c0.8-0.4,1.9-0.3,2.6,0.3c0.4,0.3,0.5,1,1,0.9c0.5-0.1,0.9-0.5,1.3-0.8c0.3-0.2,0.6-0.4,0.9-0.6c0.6-0.3,0.5-0.6,0.2-1.1
			c-1.1-1.5-2.5-2.2-4.3-2.4c-2.8-0.3-5.3,1.1-6.1,3.4c-0.9,2.6,0.2,5.2,2.7,6.7c0.7,0.4,1.5,0.7,2.2,1.1c0.7,0.3,1.4,0.7,2.1,1
			c0.8,0.4,1.2,1.1,1,2c-0.2,0.9-0.9,1.3-1.7,1.5c-1.8,0.3-3.2-0.2-4.3-1.7c-0.3-0.4-0.5-0.5-1-0.2c-0.6,0.4-1.3,0.8-2,1.1
			c-0.5,0.3-0.5,0.5-0.2,1C31.2,41.7,33.5,42.6,36.3,42.6z M27.2,30.9C27.2,30.9,27.2,30.9,27.2,30.9c0-2.2,0-4.5,0-6.7
			c0-0.5-0.1-0.7-0.7-0.7c-0.8,0-1.6,0-2.5,0c-0.6,0-0.8,0.2-0.7,0.8c0,2.6,0,5.2,0,7.9c0,1.6,0,3.3,0,4.9c0,1.4-0.7,2-2.1,2
			c-1,0-1.6-0.6-2.1-1.4c-0.3-0.5-0.5-0.5-1-0.2c-0.6,0.4-1.3,0.8-2,1.2c-0.4,0.2-0.5,0.4-0.2,0.9c1.3,2.4,4.2,3.5,7.4,2.8
			c2.4-0.6,3.8-2.5,3.8-5.4C27.2,35,27.2,33,27.2,30.9z"/>
	</g>
</g>
</svg>
