<?xml version="1.0" encoding="utf-8"?>
<!-- Generator: Adobe Illustrator 25.2.3, SVG Export Plug-In . SVG Version: 6.00 Build 0)  -->
<!DOCTYPE svg PUBLIC "-//W3C//DTD SVG 1.1//EN" "http://www.w3.org/Graphics/SVG/1.1/DTD/svg11.dtd" [
	<!ENTITY ns_extend "http://ns.adobe.com/Extensibility/1.0/">
	<!ENTITY ns_ai "http://ns.adobe.com/AdobeIllustrator/10.0/">
	<!ENTITY ns_graphs "http://ns.adobe.com/Graphs/1.0/">
	<!ENTITY ns_vars "http://ns.adobe.com/Variables/1.0/">
	<!ENTITY ns_imrep "http://ns.adobe.com/ImageReplacement/1.0/">
	<!ENTITY ns_sfw "http://ns.adobe.com/SaveForWeb/1.0/">
	<!ENTITY ns_custom "http://ns.adobe.com/GenericCustomNamespace/1.0/">
	<!ENTITY ns_adobe_xpath "http://ns.adobe.com/XPath/1.0/">
]>
<svg version="1.1" id="Layer_1" xmlns:x="&ns_extend;" xmlns:i="&ns_ai;" xmlns:graph="&ns_graphs;"
	 xmlns="http://www.w3.org/2000/svg" xmlns:xlink="http://www.w3.org/1999/xlink" x="0px" y="0px" viewBox="0 0 50.7 50.7"
	 style="enable-background:new 0 0 50.7 50.7;" xml:space="preserve">
<style type="text/css">
	.st0{fill:#FFFFFF;}
</style>
<metadata>
	<sfw  xmlns="&ns_sfw;">
		<slices></slices>
		<sliceSourceBounds  bottomLeftOrigin="true" height="35.2" width="35.2" x="8.4" y="7.8"></sliceSourceBounds>
	</sfw>
</metadata>
<g>
	<g>
		<path class="st0" d="M8.4,25.3c0-4.9,0-9.8,0-14.7c0-1.8,1-2.9,2.8-2.9c9.8,0,19.7,0,29.5,0c1.7,0,2.8,1.1,2.8,2.8
			c0,9.8,0,19.7,0,29.5c0,1.8-1.1,2.8-2.8,2.8c-9.9,0-19.7,0-29.6,0c-1.7,0-2.8-1.1-2.8-2.8C8.4,35.2,8.4,30.2,8.4,25.3z M27.2,23.1
			c0,0-0.1,0-0.1,0c0-0.6,0-1.1,0-1.7c0-0.4-0.1-0.5-0.5-0.5c-1.4,0-2.7,0-4.1,0c-0.4,0-0.5,0.1-0.5,0.5c0,5.3,0,10.5,0,15.8
			c0,0.4,0.1,0.5,0.6,0.5c1.3,0,2.7,0,4,0c0.5,0,0.7-0.1,0.7-0.6c0-2.8,0-5.6,0-8.4c0-0.7,0.1-1.5,0.5-2.1c0.5-1.1,1.6-1.6,3.1-1.4
			c1.1,0.1,1.8,0.8,2.1,2c0.2,0.7,0.2,1.4,0.2,2.1c0,2.6,0,5.3,0,7.9c0,0.5,0.1,0.6,0.6,0.6c1.4,0,2.7,0,4.1,0
			c0.5,0,0.6-0.2,0.6-0.6c0-3,0-5.9,0-8.9c0-1.1-0.1-2.2-0.3-3.3c-0.5-2.1-1.6-3.6-3.8-4.2c-1-0.2-2-0.3-3.1-0.2
			c-1.5,0.2-2.7,0.9-3.6,2C27.5,22.8,27.3,23,27.2,23.1z M13.6,29.4c0,2.6,0,5.2,0,7.8c0,0.4,0.1,0.6,0.5,0.6c1.4,0,2.8,0,4.2,0
			c0.4,0,0.5-0.1,0.5-0.5c0-5.3,0-10.5,0-15.8c0-0.4-0.1-0.5-0.5-0.5c-1.4,0-2.8,0-4.2,0c-0.5,0-0.6,0.2-0.6,0.6
			C13.6,24.1,13.6,26.7,13.6,29.4z M13.2,15.6c0,1.7,1.3,3,3,3c1.6,0,3-1.3,3-3c0-1.7-1.3-3-3-3C14.6,12.6,13.2,14,13.2,15.6z"/>
	</g>
</g>
</svg>
