<?xml version="1.0" encoding="utf-8"?>
<!-- Generator: Adobe Illustrator 25.2.3, SVG Export Plug-In . SVG Version: 6.00 Build 0)  -->
<!DOCTYPE svg PUBLIC "-//W3C//DTD SVG 1.1//EN" "http://www.w3.org/Graphics/SVG/1.1/DTD/svg11.dtd" [
	<!ENTITY ns_extend "http://ns.adobe.com/Extensibility/1.0/">
	<!ENTITY ns_ai "http://ns.adobe.com/AdobeIllustrator/10.0/">
	<!ENTITY ns_graphs "http://ns.adobe.com/Graphs/1.0/">
	<!ENTITY ns_vars "http://ns.adobe.com/Variables/1.0/">
	<!ENTITY ns_imrep "http://ns.adobe.com/ImageReplacement/1.0/">
	<!ENTITY ns_sfw "http://ns.adobe.com/SaveForWeb/1.0/">
	<!ENTITY ns_custom "http://ns.adobe.com/GenericCustomNamespace/1.0/">
	<!ENTITY ns_adobe_xpath "http://ns.adobe.com/XPath/1.0/">
]>
<svg version="1.1" id="Layer_1" xmlns:x="&ns_extend;" xmlns:i="&ns_ai;" xmlns:graph="&ns_graphs;"
	 xmlns="http://www.w3.org/2000/svg" xmlns:xlink="http://www.w3.org/1999/xlink" x="0px" y="0px" viewBox="0 0 121 232"
	 style="enable-background:new 0 0 121 232;" xml:space="preserve">
<style type="text/css">
	.st0{fill:#B7B7B7;}
	.st1{fill:#FFFFFF;}
</style>
<metadata>
	<sfw  xmlns="&ns_sfw;">
		<slices></slices>
		<sliceSourceBounds  bottomLeftOrigin="true" height="224.7" width="116.5" x="1.7" y="-225.2"></sliceSourceBounds>
	</sfw>
</metadata>
<path class="st0" d="M65.1,20c1-1.9,1-3.8,0.2-5.7c-0.9-2-2.3-3.7-3.9-5.1C57,5.6,52.1,3.1,46.8,1.4c-2.5-0.8-5.1-1.2-7.7-0.6
	c-1.9,0.4-3.5,1.4-4.4,3.3c-0.9,1.8-1.9,3.6-2.8,5.4c-0.3,0.5-0.2,0.7,0.3,1c4.1,2.1,8.2,4.3,12.3,6.4c0.7,0.4,1.8,0.6,2,1.2
	c0.2,0.7-0.6,1.4-1,2.2c-0.2,0.5-0.5,0.5-0.9,0.3c-4-2.1-8.1-4.2-12.1-6.3c-3.8-2-7.6-3.9-11.3-5.9c-1.9-1-3.7-1-5.5-0.2
	c-2.1,0.9-3.8,2.3-5.3,4c-3.6,4.3-6.1,9.1-7.8,14.4c-0.8,2.5-1.2,5.1-0.6,7.8c0.4,1.9,1.4,3.5,3.3,4.4c1.9,0.9,3.7,1.9,5.5,2.9
	c0.5,0.3,0.7,0.2,0.9-0.3c1.1-2.1,2.2-4.2,3.3-6.3c0.9-1.7,2.1-3.1,3.7-4.2c3.6-2.3,7.4-2.4,11.2-0.4c5.7,2.9,11.4,5.9,17.1,8.9
	c2.6,1.4,5.8,0.9,8-1c1-0.8,1.7-1.9,2.3-3C59.9,30.3,62.4,25.1,65.1,20z M40.2,10.4c-1.5-0.8-2-2.6-1.2-4.1c0.8-1.5,2.6-2,4.1-1.2
	c1.5,0.8,2,2.6,1.2,4.1C43.5,10.7,41.7,11.2,40.2,10.4z"/>
<path class="st1" d="M9.9,53.2c-1,1.9-1,3.8-0.2,5.7c0.9,2,2.3,3.7,3.9,5.1c4.3,3.6,9.2,6.2,14.5,7.9c2.5,0.8,5.1,1.2,7.7,0.6
	c1.9-0.4,3.5-1.4,4.4-3.3c0.9-1.8,1.9-3.6,2.8-5.4c0.3-0.5,0.2-0.7-0.3-1c-4.1-2.1-8.2-4.3-12.3-6.4c-0.7-0.4-1.8-0.6-2-1.2
	c-0.2-0.7,0.6-1.4,1-2.2c0.2-0.5,0.5-0.5,0.9-0.3c4,2.1,8.1,4.2,12.1,6.3c3.8,2,7.6,3.9,11.3,5.9c1.9,1,3.7,1,5.5,0.2
	c2.1-0.9,3.8-2.3,5.3-4c3.6-4.3,6.1-9.1,7.8-14.4c0.8-2.5,1.2-5.1,0.6-7.8c-0.4-1.9-1.4-3.5-3.3-4.4c-1.9-0.9-3.7-1.9-5.5-2.9
	c-0.5-0.3-0.7-0.2-0.9,0.3c-1.1,2.1-2.2,4.2-3.3,6.3c-0.9,1.7-2.1,3.1-3.7,4.2c-3.6,2.3-7.4,2.4-11.2,0.4
	c-5.7-2.9-11.4-5.9-17.1-8.9c-2.6-1.4-5.8-0.9-8,1c-1,0.8-1.7,1.9-2.3,3C15.2,43,12.6,48.1,9.9,53.2z M34.9,62.8
	c1.5,0.8,2,2.6,1.2,4.1c-0.8,1.5-2.6,2-4.1,1.2c-1.5-0.8-2-2.6-1.2-4.1C31.6,62.5,33.4,62,34.9,62.8z"/>
<path class="st0" d="M99.8,73c-0.1-0.4-0.1-0.4-0.5-0.2C82.9,78.9,66.6,84.9,50.2,91c-0.1,0-0.2,0.1-0.3,0.1
	c6.1,16.5,12.3,33.1,18.4,49.6c0.1,0.2,0.1,0.2,0.3,0.1c16.5-6.1,33.1-12.3,49.6-18.4c0-0.1-0.1-0.2-0.1-0.4
	C112,105.8,105.9,89.4,99.8,73z M88.6,112.5C88.6,112.5,88.6,112.5,88.6,112.5c1,2.7,2,5.4,3,8.1c0.4,1,0.5,2,0.4,3.1
	c-0.1,1.7-0.8,3.2-2.2,4.3c-1.9,1.5-4,2.3-6.5,2.2c-1.9-0.1-3.5-0.9-4.9-2.1c-0.1-0.1-0.1-0.1,0-0.3c0.9-1.2,1.8-2.3,2.7-3.5
	c0.1-0.1,0.1-0.1,0.2,0c0.4,0.4,0.9,0.7,1.4,1c0.8,0.4,1.6,0.5,2.4,0.2c0.3-0.1,0.6-0.2,0.8-0.4c0.9-0.6,1-1.4,0.9-2.4
	c-0.1-0.4-0.2-0.8-0.4-1.3c-1.9-5.2-3.8-10.3-5.7-15.5c-0.1-0.2,0-0.3,0.2-0.4c1.4-0.5,2.8-1,4.2-1.5c0.2-0.1,0.3,0,0.3,0.1
	C86.5,106.9,87.6,109.7,88.6,112.5z M110.8,116.6c-0.2,1.8-1,3.1-2.3,4.3c-1,0.9-2.2,1.5-3.5,2c-2,0.7-4.1,1-6.1,0.6
	c-1.5-0.3-2.8-1-4-2c-0.1-0.1-0.1-0.2,0-0.3c0.9-1.1,1.8-2.2,2.7-3.3c0.1-0.1,0.2-0.1,0.3,0c0.8,0.6,1.7,1.2,2.8,1.3
	c1.6,0.2,3-0.2,4.2-1.2c0.6-0.5,1-1.2,0.9-2.1c-0.1-0.8-0.5-1.4-1.3-1.8c-0.5-0.2-1.1-0.3-1.6-0.4c-1.3-0.1-2.6-0.2-3.8-0.2
	c-1.3-0.1-2.5-0.3-3.7-0.8c-1.7-0.7-2.8-1.9-3.6-3.5c-0.5-1.1-0.8-2.3-0.6-3.6c0.2-1.8,1.1-3.3,2.5-4.4c1.9-1.4,4-2.2,6.4-2
	c1.5,0.1,2.8,0.8,4,1.8c0.1,0.1,0.1,0.1,0,0.2c-0.9,1.1-1.7,2.3-2.6,3.4c-0.1,0.1-0.2,0.1-0.3,0c-0.4-0.3-0.7-0.6-1.2-0.7
	c-1.2-0.5-2.3-0.3-3.3,0.5c-1.4,1.2-0.7,3.1,0.5,3.6c0.5,0.2,1,0.3,1.5,0.4c1.2,0.1,2.3,0.1,3.5,0.2c1.3,0.1,2.7,0.3,4,0.7
	c1.9,0.7,3.2,1.9,4,3.8C110.7,114.1,110.9,115.3,110.8,116.6z"/>
<path class="st0" d="M80.3,197.2l-28-15.3c-0.1-0.1-0.2-0.1-0.3-0.2l-0.2,0.4c0,0,0,0,0,0c0,0,0,0,0,0c0,0,0,0,0,0.1c0,0,0,0,0,0
	c0,0,0,0,0,0.1c0,0,0,0,0,0c0,0,0,0,0,0l-0.1,0.3c0.1,0.1,0,0.2,0,0.3c-0.5,1.1-1,2.2-1.5,3.4c-0.5,1.1-1,2.2-1.4,3.3
	c-0.4,0.9-0.8,1.8-1.2,2.8c-0.4,0.9-0.8,1.8-1.2,2.7c-0.3,0.7-0.6,1.4-0.9,2.1c-0.4,0.9-0.8,1.8-1.2,2.8c-0.3,0.7-0.6,1.4-0.9,2.1
	c-0.4,0.9-0.8,1.9-1.2,2.8c-0.3,0.7-0.6,1.4-0.9,2.1c-0.4,0.9-0.8,1.9-1.2,2.8c-0.4,0.8-0.7,1.7-1.1,2.5c-0.1,0.2,0,0.3,0.1,0.4
	c2,2,4.1,3.9,6.1,5.9c1.1,1.1,2.2,2.1,3.3,3.2c0.1,0.1,0.1,0.1,0.1,0.2c0,0,0,0,0,0c0,0,0,0-0.1,0l0.1,0.1c0,0,0-0.1,0.1,0
	c0,0,0,0,0,0c0,0,0,0,0,0.1c0,0,0,0,0,0c0,0,0,0,0,0l0.4,0.2c0,0,0,0,0-0.1c0,0,0,0,0,0c0.1,0,0.2,0,0.3,0c4.2,1,8.3,1.9,12.5,2.9
	c0.4,0.1,0.5,0,0.7-0.3c0.4-0.7,0.9-1.3,1.3-2c0.6-0.8,1.1-1.7,1.7-2.5c0.5-0.8,1.1-1.6,1.6-2.5c0.6-0.8,1.1-1.7,1.7-2.5
	c0.5-0.8,1.1-1.6,1.6-2.5c0.6-0.9,1.1-1.7,1.7-2.6c0.5-0.8,1.1-1.6,1.6-2.4c0.6-0.8,1.1-1.7,1.7-2.5c0.6-0.8,1.1-1.7,1.6-2.5
	c0.6-0.8,1.1-1.7,1.7-2.5c0.6-0.9,1.2-1.8,1.8-2.7C80.7,197.4,80.7,197.5,80.3,197.2z M69.4,204.4c-0.8,1.2-1.6,2.4-2.4,3.6
	c-0.8,1.2-1.6,2.4-2.4,3.6c-0.8,1.2-1.6,2.4-2.4,3.6c-0.6,0.8-1.1,1.6-1.6,2.5c-0.1,0.2-0.2,0.2-0.4,0.2c-2.6-0.6-5.3-1.2-7.9-1.9
	c-0.1,0-0.1,0-0.2-0.1c-0.1,0-0.2-0.1-0.2-0.2c-2-1.9-3.9-3.8-5.9-5.7c-0.2-0.2-0.2-0.3-0.1-0.5c0.8-1.8,1.6-3.6,2.3-5.4
	c0.1-0.2,0.1-0.2,0.3-0.1c1.1,0.6,2.1,1.2,3.2,1.7c0.2,0.1,0.2,0.2,0.1,0.4c-0.3,0.7-0.6,1.4-0.9,2.1c-0.3,0.6-0.3,0.6,0.2,1.1
	c1,0.9,1.9,1.9,2.9,2.8c1.4,0.3,2.8,0.6,4.2,1c0.3,0.1,0.5,0,0.7-0.2c0.8-1.3,1.7-2.6,2.6-3.8c0.2-0.2,0.1-0.3-0.1-0.4
	c-1.3-0.7-2.6-1.4-3.9-2.1c-0.1-0.1-0.2-0.1-0.3-0.2c-1.7-0.9-3.4-1.9-5.1-2.8c-0.9-0.5-1.8-1-2.7-1.5c-0.2-0.1-0.2-0.2-0.1-0.4
	c0.4-0.9,0.8-1.9,1.2-2.8c0,0,0-0.1,0.1-0.1c0.1-0.2,0.1-0.5,0.3-0.5c0.2-0.1,0.4,0.2,0.6,0.3c2.5,1.3,5,2.7,7.4,4.1
	c0.1,0.1,0.2,0.1,0.3,0.2c1.5,0.8,3,1.6,4.4,2.4c0.2,0.1,0.3,0.1,0.5-0.1c0.6-1,1.3-2,2-3c0.1-0.2,0.1-0.3-0.1-0.4
	c-1.5-0.8-3-1.6-4.5-2.5c-0.1-0.1-0.2-0.1-0.3-0.2c-0.2-0.1-0.3-0.2-0.5-0.2c-2.6-1.4-5.3-2.9-7.9-4.3c-0.2-0.1-0.3-0.2-0.2-0.5
	c0.5-1.1,0.9-2.1,1.4-3.2c0.1-0.2,0.2-0.2,0.3-0.1c2.9,1.6,5.8,3.1,8.6,4.7c0,0,0.1,0,0.1,0.1c0.1,0,0.2,0.1,0.3,0.1
	c2.8,1.5,5.6,3.1,8.4,4.6c0.3,0.1,0.3,0.2,0.1,0.5C71.1,202,70.2,203.2,69.4,204.4z"/>
<path class="st0" d="M40.3,147.8L10,158.1c-0.1,0-0.1,0-0.2,0.1c-0.1,0-0.1,0.1-0.1,0.2c0.4,0.8,0.7,1.6,1.1,2.4
	c0.6,1.3,1.2,2.6,1.7,3.9c0.5,1.1,1,2.2,1.5,3.3c0.6,1.3,1.2,2.6,1.8,4c0.6,1.3,1.2,2.6,1.7,4c0.6,1.3,1.2,2.7,1.8,4
	c0.6,1.3,1.2,2.6,1.7,4c0.7,1.5,1.4,3,2,4.6c0.1,0.2,0.2,0.3,0.5,0.3c3.9-0.2,7.7-0.4,11.6-0.7c0.6,0,1.2-0.1,1.8-0.1l0.2-0.1
	c0.5-0.4,1-0.7,1.5-1.1c3.2-2.2,6.4-4.3,9.6-6.5c0.2-0.1,0.2-0.2,0.2-0.4c-0.3-1.4-0.7-2.8-1-4.2c-0.3-1.4-0.7-2.8-1-4.2
	c-0.3-1.2-0.6-2.4-0.9-3.5c-0.3-1.2-0.6-2.4-0.9-3.5c-0.3-1.2-0.6-2.4-0.9-3.6c-0.3-1.2-0.6-2.4-0.9-3.6c-0.3-1.2-0.6-2.4-0.9-3.5
	c-0.3-1.2-0.6-2.4-0.9-3.6c-0.1-0.5-0.3-1-0.4-1.6c0-0.1-0.1-0.1,0-0.2l-0.2-0.7C40.5,147.8,40.4,147.8,40.3,147.8z M37.1,156.4
	c0.3,1.2,0.6,2.3,0.8,3.5c0,0.1,0,0.2-0.1,0.3c-3,1-6.1,2.1-9.1,3.1c0,0,0,0-0.1,0c0,0,0,0,0,0c-0.2,0.1-0.4,0.1-0.5,0.2
	c-1.6,0.5-3.1,1.1-4.7,1.6c-0.1,0-0.3,0-0.2,0.3c0.5,1.2,1,2.3,1.6,3.5c0.1,0.1,0.1,0.1,0.2,0.1c1.6-0.6,3.3-1.1,4.9-1.7l0,0
	c0.7-0.2,1.3-0.5,2-0.7c2.2-0.8,4.5-1.5,6.7-2.3c0.3-0.1,0.3,0,0.4,0.2c0.6,2.5,1.2,5,1.8,7.4c0.3,1.4,0.7,2.8,1,4.2
	c0,0.2,0.1,0.3-0.1,0.4c-2.3,1.6-4.6,3.1-6.9,4.7c0,0-0.1,0-0.1,0l0,0c-0.8,0-1.7,0.1-2.5,0.1c-2,0.1-3.9,0.2-5.9,0.3
	c-0.2,0-0.3-0.1-0.4-0.2c-0.6-1.3-1.1-2.6-1.7-3.9c-0.2-0.5-0.4-1-0.7-1.5c-0.1-0.2-0.1-0.2,0.1-0.3c1.2-0.4,2.3-0.8,3.5-1.2
	c0.2-0.1,0.2,0,0.3,0.1c0.4,0.9,0.8,1.7,1.1,2.6c0.1,0.1,0.1,0.2,0.3,0.2c1.4-0.1,2.8-0.2,4.2-0.3c0,0,0.1,0,0.1,0c0,0,0.1,0,0.1,0
	c1.2-0.8,2.5-1.7,3.7-2.5c0.2-0.1,0.2-0.2,0.2-0.4c-0.4-1.6-0.8-3.1-1.1-4.7c-0.1-0.2-0.1-0.2-0.3-0.1l-4.2,1.4
	c-0.1,0-0.2,0.1-0.3,0.1l0,0c-0.3,0.1-0.6,0.2-0.9,0.3c-2.5,0.8-5,1.7-7.5,2.5c-0.2,0.1-0.3,0.1-0.4-0.2c-0.9-2-1.8-4-2.7-6
	c-0.7-1.6-1.4-3.2-2.1-4.8c-0.1-0.2-0.1-0.3,0.2-0.4c3-1,6-2,9-3.1c0.1,0,0.2-0.1,0.3-0.1c0,0,0,0,0,0c0.1,0,0.2-0.1,0.3-0.1
	c3-1,6.1-2.1,9.1-3.1C36.9,156.1,37,156.1,37.1,156.4z"/>
</svg>
