<?xml version="1.0" encoding="utf-8"?>
<!-- Generator: Adobe Illustrator 25.2.3, SVG Export Plug-In . SVG Version: 6.00 Build 0)  -->
<!DOCTYPE svg PUBLIC "-//W3C//DTD SVG 1.1//EN" "http://www.w3.org/Graphics/SVG/1.1/DTD/svg11.dtd" [
	<!ENTITY ns_extend "http://ns.adobe.com/Extensibility/1.0/">
	<!ENTITY ns_ai "http://ns.adobe.com/AdobeIllustrator/10.0/">
	<!ENTITY ns_graphs "http://ns.adobe.com/Graphs/1.0/">
	<!ENTITY ns_vars "http://ns.adobe.com/Variables/1.0/">
	<!ENTITY ns_imrep "http://ns.adobe.com/ImageReplacement/1.0/">
	<!ENTITY ns_sfw "http://ns.adobe.com/SaveForWeb/1.0/">
	<!ENTITY ns_custom "http://ns.adobe.com/GenericCustomNamespace/1.0/">
	<!ENTITY ns_adobe_xpath "http://ns.adobe.com/XPath/1.0/">
]>
<svg version="1.1" id="Layer_1" xmlns:x="&ns_extend;" xmlns:i="&ns_ai;" xmlns:graph="&ns_graphs;"
	 xmlns="http://www.w3.org/2000/svg" xmlns:xlink="http://www.w3.org/1999/xlink" x="0px" y="0px" viewBox="0 0 50.7 50.7"
	 style="enable-background:new 0 0 50.7 50.7;" xml:space="preserve">
<style type="text/css">
	.st0{fill:#1D1D20;}
</style>
<metadata>
	<sfw  xmlns="&ns_sfw;">
		<slices></slices>
		<sliceSourceBounds  bottomLeftOrigin="true" height="26.3" width="26" x="12.4" y="-38.5"></sliceSourceBounds>
	</sfw>
</metadata>
<g>
	<g>
		<path class="st0" d="M30.3,31.7c-1.5,0-3.1,0-4.6,0c-0.2,0-0.3,0-0.3,0.3c0,0.5,0,0.5,0.5,0.5c1.8,0,3.6,0,5.5,0
			c0.2,0,0.3,0.1,0.3,0.3c0,0.8,0,1.6,0,2.4c-0.1,0.8-0.5,1.5-1.2,1.9c-0.8,0.6-1.7,0.9-2.7,1.1c-2,0.5-3.9,0.4-5.9-0.3
			c-0.8-0.3-1.4-0.6-2-1.2c-0.5-0.6-0.8-1.2-0.8-2c0-1.9,0-3.9,0-5.8c0-1.8,1.4-3.2,3.2-3.2c2.1,0,4.2,0,6.3,0
			c1.7,0,3.3-1.4,3.7-3.1c0.1-0.5,0.1-1.1,0.1-1.6c0-0.6,0-1.2,0-1.7c0-0.2,0-0.2,0.2-0.2c0.7,0,1.5,0,2.2,0c1.1,0,1.9,0.6,2.4,1.5
			c0.5,0.8,0.7,1.7,0.8,2.6c0.1,0.6,0.2,1.2,0.2,1.9c0.2,1.9-0.3,3.7-1.2,5.3c-0.5,0.9-1.3,1.4-2.4,1.4
			C33.3,31.7,31.8,31.7,30.3,31.7C30.3,31.7,30.3,31.7,30.3,31.7z M30,35.2c0-0.7-0.5-1.2-1.2-1.2c-0.6,0-1.2,0.6-1.2,1.2
			c0,0.6,0.5,1.2,1.2,1.2C29.5,36.4,30,35.9,30,35.2z"/>
		<path class="st0" d="M25.5,24.9c-1.1,0-2.1,0-3.2,0c-1.1,0-2.1,0.4-2.9,1.2c-0.7,0.7-1.1,1.6-1.1,2.7c0,0.9,0,1.8,0,2.6
			c0,0.2,0,0.2-0.2,0.2c-0.7,0-1.5,0-2.2,0c-1.3-0.1-2.1-0.8-2.6-1.9c-0.4-0.9-0.6-1.9-0.7-2.8c-0.3-1.8-0.1-3.5,0.5-5.2
			c0.5-1.7,2-2.7,3.8-2.7c2.8,0,5.5,0,8.3,0c0.3,0,0.3-0.1,0.3-0.3c0-0.5,0-0.5-0.5-0.5c-1.8,0-3.7,0-5.5,0c-0.2,0-0.3-0.1-0.3-0.3
			c0-0.9,0-1.8,0-2.7c0.1-1.1,0.6-1.9,1.6-2.3c0.8-0.3,1.7-0.5,2.6-0.6c1.7-0.2,3.4-0.1,5,0.1c1.1,0.2,2,0.7,2.7,1.6
			c0.4,0.5,0.5,1.1,0.5,1.7c0,2,0,3.9,0,5.9c0,1.8-1.4,3.2-3.2,3.2C27.4,24.9,26.5,24.9,25.5,24.9C25.5,24.9,25.5,24.9,25.5,24.9z
			 M21.8,16.5c0.6,0,1.2-0.5,1.2-1.2c0-0.6-0.5-1.2-1.2-1.2c-0.6,0-1.2,0.5-1.2,1.2C20.7,16,21.2,16.5,21.8,16.5z"/>
	</g>
</g>
</svg>
