<?xml version="1.0" encoding="utf-8"?>
<!-- Generator: Adobe Illustrator 25.2.3, SVG Export Plug-In . SVG Version: 6.00 Build 0)  -->
<!DOCTYPE svg PUBLIC "-//W3C//DTD SVG 1.1//EN" "http://www.w3.org/Graphics/SVG/1.1/DTD/svg11.dtd" [
	<!ENTITY ns_extend "http://ns.adobe.com/Extensibility/1.0/">
	<!ENTITY ns_ai "http://ns.adobe.com/AdobeIllustrator/10.0/">
	<!ENTITY ns_graphs "http://ns.adobe.com/Graphs/1.0/">
	<!ENTITY ns_vars "http://ns.adobe.com/Variables/1.0/">
	<!ENTITY ns_imrep "http://ns.adobe.com/ImageReplacement/1.0/">
	<!ENTITY ns_sfw "http://ns.adobe.com/SaveForWeb/1.0/">
	<!ENTITY ns_custom "http://ns.adobe.com/GenericCustomNamespace/1.0/">
	<!ENTITY ns_adobe_xpath "http://ns.adobe.com/XPath/1.0/">
]>
<svg version="1.1" id="Layer_1" xmlns:x="&ns_extend;" xmlns:i="&ns_ai;" xmlns:graph="&ns_graphs;"
	 xmlns="http://www.w3.org/2000/svg" xmlns:xlink="http://www.w3.org/1999/xlink" x="0px" y="0px" viewBox="0 0 375 668.4"
	 style="enable-background:new 0 0 375 668.4;" xml:space="preserve">
<style type="text/css">
	.st0{fill:#72C162;}
</style>
<metadata>
	<sfw  xmlns="&ns_sfw;">
		<slices></slices>
		<sliceSourceBounds  bottomLeftOrigin="true" height="677.4" width="476.6" x="-86.6" y="-668.4"></sliceSourceBounds>
	</sfw>
</metadata>
<g>
	<path class="st0" d="M103,16.1c6,14.5,26.1,40.8,4.5,52c-15.8,8.2-35.1,1.2-51.6,7.3c-8,3-14.1,8.6-17.9,16.2
		c-3.5,7.1-5.2,14.9-8.7,22c-1.7,3.4-3.8,6.7-7.1,8.6c-5.3,3.1-12,2.7-17.9,2.5c-9.6-0.2-19-1.3-28.4-3.1V9.8h-62.6v649.7H-24v-68.9
		c-6.4,4.1-12.3,8.8-17.8,14.1c-4.6,4.5-11.7-2.6-7.1-7.1c6.4-6.2,15.2-13.7,24.8-19.2V473.6c-4.9-3.5-9.7-7.6-14.5-12.6
		c-6.2-6.4-3.6-43.1,2.7-36.6c3.9,4.1,7.9,7.5,11.9,10.5V131.8c6.6,1.2,13.3,2.1,20,2.6c10.3,0.7,22.8,1.9,31.9-3.8
		C42,121.7,40.3,103,50.2,91.1c6-7.3,16.1-8.5,25-8.8c9.2-0.3,18.4,0.2,27.4-1.9c8.1-1.9,15.8-5.9,20.4-13
		c5.4-8.2,4.9-18.7,2.1-27.8c-3.5-11-11-20.3-14.3-31.4c-1.5-5.3-1.7-12.1,0.9-17.2h-10.6C98.9-0.9,99.9,8.6,103,16.1z"/>
	<path class="st0" d="M322.7,636.3c-15.8-13.2-26-35.9-8.8-52.1c12.8-12,31.3-18,40.6-33.7c13.1-22.2-2.2-45.4-4.4-68.2
		c-1.1-11.7,1.8-25.1,14.5-29c8.3-2.5,16.6-0.6,24.3,2.8l1-10.4c-5.3-2.1-10.8-3.5-16.6-3.5c-11.8-0.1-23.1,4.9-28.9,15.5
		c-5.6,10.2-5.2,22.6-3,33.7c2.7,13.5,9.2,26.7,8.4,40.7c-1.3,22.5-25.7,30-40.4,42.7c-7.8,6.7-13.7,15.4-14.8,25.9
		c-1.2,11.6,4,22.6,10.5,31.9c16,22.6,47.5,25.8,69.8,35.8l1-10.1C360,651.9,338.8,649.9,322.7,636.3z"/>
</g>
</svg>
