<?xml version="1.0" encoding="utf-8"?>
<!-- Generator: Adobe Illustrator 25.2.3, SVG Export Plug-In . SVG Version: 6.00 Build 0)  -->
<!DOCTYPE svg PUBLIC "-//W3C//DTD SVG 1.1//EN" "http://www.w3.org/Graphics/SVG/1.1/DTD/svg11.dtd" [
	<!ENTITY ns_extend "http://ns.adobe.com/Extensibility/1.0/">
	<!ENTITY ns_ai "http://ns.adobe.com/AdobeIllustrator/10.0/">
	<!ENTITY ns_graphs "http://ns.adobe.com/Graphs/1.0/">
	<!ENTITY ns_vars "http://ns.adobe.com/Variables/1.0/">
	<!ENTITY ns_imrep "http://ns.adobe.com/ImageReplacement/1.0/">
	<!ENTITY ns_sfw "http://ns.adobe.com/SaveForWeb/1.0/">
	<!ENTITY ns_custom "http://ns.adobe.com/GenericCustomNamespace/1.0/">
	<!ENTITY ns_adobe_xpath "http://ns.adobe.com/XPath/1.0/">
]>
<svg version="1.1" id="Layer_1" xmlns:x="&ns_extend;" xmlns:i="&ns_ai;" xmlns:graph="&ns_graphs;"
	 xmlns="http://www.w3.org/2000/svg" xmlns:xlink="http://www.w3.org/1999/xlink" x="0px" y="0px" viewBox="0 0 93.2 226.1"
	 style="enable-background:new 0 0 93.2 226.1;" xml:space="preserve">
<style type="text/css">
	.st0{fill:#72C162;}
</style>
<metadata>
	<sfw  xmlns="&ns_sfw;">
		<slices></slices>
		<sliceSourceBounds  bottomLeftOrigin="true" height="225.6" width="93.4" x="308" y="-387"></sliceSourceBounds>
	</sfw>
</metadata>
<g>
	<path class="st0" d="M65,194c16.4-12.5,26-35.9,8.8-52.1c-12.8-12-31.3-18-40.6-33.7C20,86.1,35.3,62.9,37.5,40.1
		c1.1-11.7-2.7-25.6-14.5-29C19.9,10.2,2.8,9.8-0.2,9.9V0c0.2,0,0.3,0,0.5,0c11.8-0.1,36,0,43,15.5c4.8,10.6,5.2,22.6,3,33.7
		c-2.7,13.5-9.2,26.7-8.4,40.7c1.3,22.5,25.7,30,40.4,42.7C86,139.3,92,148.1,93,158.5c1.2,11.6-3.8,22.7-10.5,31.9
		C63.7,215.9,22,216.1-0.2,225.6v-10.4C15.4,209.4,48.7,206.4,65,194z"/>
</g>
</svg>
