<?xml version="1.0" encoding="utf-8"?>
<!-- Generator: Adobe Illustrator 25.2.3, SVG Export Plug-In . SVG Version: 6.00 Build 0)  -->
<!DOCTYPE svg PUBLIC "-//W3C//DTD SVG 1.1//EN" "http://www.w3.org/Graphics/SVG/1.1/DTD/svg11.dtd" [
	<!ENTITY ns_extend "http://ns.adobe.com/Extensibility/1.0/">
	<!ENTITY ns_ai "http://ns.adobe.com/AdobeIllustrator/10.0/">
	<!ENTITY ns_graphs "http://ns.adobe.com/Graphs/1.0/">
	<!ENTITY ns_vars "http://ns.adobe.com/Variables/1.0/">
	<!ENTITY ns_imrep "http://ns.adobe.com/ImageReplacement/1.0/">
	<!ENTITY ns_sfw "http://ns.adobe.com/SaveForWeb/1.0/">
	<!ENTITY ns_custom "http://ns.adobe.com/GenericCustomNamespace/1.0/">
	<!ENTITY ns_adobe_xpath "http://ns.adobe.com/XPath/1.0/">
]>
<svg version="1.1" id="Layer_1" xmlns:x="&ns_extend;" xmlns:i="&ns_ai;" xmlns:graph="&ns_graphs;"
	 xmlns="http://www.w3.org/2000/svg" xmlns:xlink="http://www.w3.org/1999/xlink" x="0px" y="0px" viewBox="0 0 50.7 50.7"
	 style="enable-background:new 0 0 50.7 50.7;" xml:space="preserve">
<style type="text/css">
	.st0{fill:#1D1D20;}
</style>
<metadata>
	<sfw  xmlns="&ns_sfw;">
		<slices></slices>
		<sliceSourceBounds  bottomLeftOrigin="true" height="28.4" width="22.1" x="12.9" y="-40.9"></sliceSourceBounds>
	</sfw>
</metadata>
<g>
	<g>
		<path class="st0" d="M22.9,19.5c0-2.3,0-4.6,0-6.9c1.6,0,3.1,0,4.6,0c0,7.2,0,14.3,0,21.5c-3.1,0.5-6.1,1-9.2,0.3
			c-3.4-0.7-5.1-2.9-5.5-6.5c-0.1-0.9,0-1.9,0.2-2.9c0.6-3.1,3-5.3,6.2-5.6C20.5,19.4,21.7,19.5,22.9,19.5z M22.9,23.4
			c-1.6-0.7-3.4-0.3-4.4,0.9c-1.1,1.4-1.3,3.7-0.3,5.2c0.9,1.4,2.7,1.9,4.7,1.3C22.9,28.3,22.9,25.8,22.9,23.4z"/>
		<path class="st0" d="M26,39.1c0.6-0.4,1.2-0.8,1.8-1.2c1.5-1,2.3-2.5,2.4-4.3c0.1-1.8,0.2-3.6,0.2-5.4c0-2.8,0-5.6,0-8.5
			c1.5,0,3,0,4.5,0c0,0.2,0,0.5,0,0.7c0,3.3,0.1,6.7,0,10c-0.1,2-0.3,4-0.6,6c-0.3,2.2-1.9,3.4-3.7,4.4c-0.3,0.2-0.8,0.1-1.2-0.1
			C28.3,40.2,27.2,39.6,26,39.1z"/>
		<path class="st0" d="M30.5,17.2c0-1.5,0-3.1,0-4.6c1.5,0,2.9,0,4.5,0c0,1.5,0,3,0,4.6C33.5,17.2,32,17.2,30.5,17.2z"/>
	</g>
</g>
</svg>
