<?xml version="1.0" encoding="utf-8"?>
<!-- Generator: Adobe Illustrator 25.2.3, SVG Export Plug-In . SVG Version: 6.00 Build 0)  -->
<!DOCTYPE svg PUBLIC "-//W3C//DTD SVG 1.1//EN" "http://www.w3.org/Graphics/SVG/1.1/DTD/svg11.dtd" [
	<!ENTITY ns_extend "http://ns.adobe.com/Extensibility/1.0/">
	<!ENTITY ns_ai "http://ns.adobe.com/AdobeIllustrator/10.0/">
	<!ENTITY ns_graphs "http://ns.adobe.com/Graphs/1.0/">
	<!ENTITY ns_vars "http://ns.adobe.com/Variables/1.0/">
	<!ENTITY ns_imrep "http://ns.adobe.com/ImageReplacement/1.0/">
	<!ENTITY ns_sfw "http://ns.adobe.com/SaveForWeb/1.0/">
	<!ENTITY ns_custom "http://ns.adobe.com/GenericCustomNamespace/1.0/">
	<!ENTITY ns_adobe_xpath "http://ns.adobe.com/XPath/1.0/">
]>
<svg version="1.1" id="Layer_1" xmlns:x="&ns_extend;" xmlns:i="&ns_ai;" xmlns:graph="&ns_graphs;"
	 xmlns="http://www.w3.org/2000/svg" xmlns:xlink="http://www.w3.org/1999/xlink" x="0px" y="0px" viewBox="0 0 121 232"
	 style="enable-background:new 0 0 121 232;" xml:space="preserve">
<style type="text/css">
	.st0{fill:#FFFFFF;}
	.st1{fill:#B7B7B7;}
	.st2{fill:#FEFEFE;}
	.st3{fill:#DCDBDA;}
</style>
<metadata>
	<sfw  xmlns="&ns_sfw;">
		<slices></slices>
		<sliceSourceBounds  bottomLeftOrigin="true" height="228.2" width="120.1" x="0.9" y="3.9"></sliceSourceBounds>
	</sfw>
</metadata>
<g>
	<g>
		<path class="st0" d="M18.4,27.6c-2.3-5-4.7-10.1-7.1-15.3c3.4-1.6,6.7-3.1,10.2-4.7c7.3,15.8,14.6,31.5,22,47.4
			c-6.3,4.1-12.4,8.4-19.8,10.1C15.4,67,9.5,64,5.1,56.5c-1.2-2-2-4.3-2.5-6.5c-1.9-7.5,1.2-14.7,7.9-18.6
			C12.9,29.9,15.7,28.9,18.4,27.6z M22.4,36.1c-4.2,0.1-7.8,2.8-8.8,6.6c-1.1,4.1,1,9.5,4.7,11.7c3.4,2.1,8,1.4,11.7-2
			C27.4,47,24.9,41.6,22.4,36.1z"/>
		<path class="st0" d="M45.1,67.5c1-1.6,1.9-3,2.8-4.5c2.3-3.8,2.5-7.8,1-11.9S45.6,43,43.8,39c-2.8-6.2-5.7-12.4-8.7-18.7
			c3.4-1.6,6.6-3,9.9-4.6c0.3,0.5,0.6,1,0.8,1.5c3.4,7.4,7,14.7,10.2,22.2c1.9,4.4,3.4,9.1,4.8,13.7c1.5,5.1-0.7,9.5-3.7,13.5
			c-0.5,0.7-1.8,1-2.8,1C51.4,67.7,48.4,67.6,45.1,67.5z"/>
		<path class="st0" d="M32.7,14.7C31.1,11.3,29.6,8,28,4.5c3.2-1.5,6.5-3,9.8-4.6c1.5,3.3,3.1,6.7,4.7,10.2
			C39.3,11.7,36,13.2,32.7,14.7z"/>
	</g>
</g>
<g>
	<g>
		<path class="st0" d="M108.1,113.7c4.2,1.1,8.5,2.3,12.7,3.4c0.1,0,0.3,0,0.2,0.2l0,0l0,0c-0.1,0-0.2,0.1-0.2,0.2
			c-12.8,12.8-25.7,25.6-38.5,38.4c-2.7,2.7-5.4,5.4-8.1,8.1c-0.1,0.1-0.2,0.1-0.2,0.2h-0.1c0.1-0.1,0-0.2,0-0.3
			c-5.2-19.3-10.3-38.7-15.5-58c-0.5-1.9-1-3.8-1.5-5.7c0-0.1,0-0.2-0.1-0.2c0-0.2,0.1-0.1,0.2-0.1c3.6,1,7.2,1.9,10.7,2.9
			c0.7,0.2,1.3,0.4,2,0.5c-0.1,0.1,0,0.2,0,0.3c2,7.5,4,14.9,6,22.4c1.4,5.2,2.8,10.4,4.1,15.5c0.1,0.3,0.1,0.3,0.3,0.1l0,0
			c9.3-9.2,18.5-18.5,27.8-27.7C108,113.8,108.1,113.8,108.1,113.7z"/>
		<path class="st1" d="M108.1,113.7c0,0.1-0.1,0.2-0.2,0.2c-9.3,9.2-18.5,18.5-27.8,27.7l0,0c-0.2,0.2-0.2,0.2-0.3-0.1
			c-1.4-5.2-2.8-10.4-4.1-15.5c-2-7.5-4-14.9-6-22.4c0-0.1-0.1-0.2,0-0.3c3.9,1.1,7.9,2.1,11.8,3.2c0,0.1,0,0.2,0,0.2
			c1.3,4.7,2.5,9.4,3.8,14.2c0,0.1,0,0.3,0.1,0.3s0.2-0.1,0.3-0.2c2.8-2.8,5.6-5.6,8.5-8.4c0.7-0.7,1.4-1.4,2.1-2.1
			C100.2,111.5,104.2,112.6,108.1,113.7z"/>
	</g>
</g>
<g>
	<g>
		<path class="st1" d="M82.7,212.5c1.7-0.7,3.4-1.2,5.3-1.3c0.3,0,0.6-0.1,0.8-0.3c1.8-2.3,4.8-1.5,7-2.9c0.7-0.5,1.5-0.3,2,0.5
			c0.5,0.9,0.4,1.7-0.5,2.3c-1.6,1.2-3.7,1.8-4.9,3.6c-5.2,1.5-9.2,5.3-14.2,7.4c-5,2.1-10.1,3.7-15.3,4.9
			c-11.5,2.8-22.5,1.6-32.7-4.3c-9.8-5.6-17.6-13.4-23.5-23.1c-1.2-1.9-2.4-3.8-4.3-5.1c-0.5-1.3-1-2.7-1.5-4
			c0.7-1.5,1.2-3.2,2.7-4.3c-1.5-0.6-1.8-1.5-1-2.7c0.4-0.6,1.1-0.8,1.6-1.2c1.2-1.1,1.6-2.6,0.5-3.6c-1-0.9-0.7-1.6-0.1-2.4
			c0.2-0.4,0.5-0.7,0.7-1.1c0.7-1.2,0.7-1.9-0.8-2.5C2.3,172,2,171,2.9,169.1c0.2-0.1,0.4-0.2,0.6-0.2c0.7,0.8-1,1.5,0,2.3
			c0.7-0.6,1.8-0.5,2.3-1.1c0.9-1.1-1.3-0.7-1-1.7c0.1,0,0.2-0.1,0.3-0.1c1.3,0.4,2.2,1,2.1,2.6c0,1.4,0.8,1.9,2.1,1.4
			c0.6-0.2,1.1-0.5,1.7-0.7c1.1-0.4,2.2-0.9,2.4,0.9c0.1,0.7,0.7,0.7,1.3,0.8c1.1,0.2,2.2-0.2,3.3-0.4c1.1-0.1,2.1-0.4,2.8,0.8
			c0.2,0.3,0.4,0.2,0.7,0.2c3.5,0.5,7.1,0.6,10.6,0.5c1.5,0,2.5,1.1,3.9,1.3c0.5,0,0.6,0.7,0,1.1c-0.7,0.5-1.5,0.5-2.2,0.6
			c-0.8,0.1-1.5,0-2.3,0.1c-2.6,0.1-3.3,1.1-2.3,3.5c3.4,7.5,6.3,15.3,11.8,21.6c0.7,0.7,1.3,1.5,2,2.2c9.8,8.1,20.9,11.7,33.6,9.5
			C77.5,214.1,82.5,213.1,82.7,212.5 M40.5,214.7c0.4,0,0.8,0.1,1.2,0.1c4.1,0.3,8.3,0.5,11.9,3.1c-0.3,0.2-0.6,0.5-0.9,0.7
			c-0.8-0.3-2.1,1.1-2.6-0.7c-0.1-0.3-0.9-0.1-1.4,0.1c-0.2,0.1-0.4,0.3-0.4,0.4c0.1,0.5,0.5,0.7,0.9,0.9c0.9,0.3,1.8,0.3,2.7,0
			c0.5-0.1,1.1-0.3,1.6-0.4c0.8-0.2,1.5-0.7,1.5,0.9c0,0.9,1,1.5,2,1c0.5-0.2,1-0.6,1.4-0.2c1.6,1.7,3,0.2,3.8-0.5
			c1.6-1.6,3.5-1.9,5.5-1.7c1.9,0.2,3.8-0.1,5.7-0.2c1-0.1,2.1-0.3,2.6-1.4c-2-0.4-3.9-0.1-5.9-0.1c-1.8-0.1-3.6,0.3-5.2-0.6
			c-0.8-0.4-1.6-0.6-2.5-0.5c-2.6,0.2-5-0.1-7.4-1.2c-1.1-0.5-1.5-1.7-2.4-2.2c-2.2-1-4-2.5-5.9-3.9c-0.7-0.6-1.7-1.3-2.6-1.1
			c-1,0.2-1.3-0.8-2.1-0.8c-1.6,0-1-0.8-0.5-1.6c0.2-0.3-0.3-0.4-0.4-0.6c-2.5-3-4.9-6.2-6.7-9.6c-1-1.9-2.2-3.8-2.6-6.1
			c-0.1-0.4-0.3-0.9-0.5-1.2c-0.5-0.6-1-0.7-1.4,0.1c-0.2,0.3-0.1,1-0.7,0.9c-0.5-0.1-0.7-0.5-0.8-0.9c-0.3-1-0.6-2-0.2-3.1
			c0.6,0.3,0.7,1.4,1.5,0.9s0-1.1-0.1-1.6c-0.2-0.7-0.4-1.4-0.8-2s-1-1.1-1.6-0.5c-1.2,1.1-2.7,1.7-4,2.6c-0.9,0.6-0.4,0.9,0.6,1.4
			c-1.6,0.2-3,0.1-3.5,1.7c-0.1,0.3-1.3,0.5-1.3,0.7c0,2-1.4,2.5-2.9,3c-0.8,0.3-0.7,0.8-0.3,1.3c0.4,0.5,0.9,0.8,1.3,1.2
			c0.6,0.7,0.6,1.6-0.1,2c-1.1,0.6-1.9,1.1-1.9,2.5c0,0.4-0.6,0.7,0,1.2c0.5,0.4,0.9,0.9,1.5,0.4c0.5-0.4,1.7,0.2,1.7-1.1
			c0.9,0.6,0.7-0.8,1.3-0.7c0-0.7-0.7-0.4-1-0.8c-0.1-0.1-0.2-0.2-0.1-0.4c0.7,0.1,1.4,0.2,2.1,0.3l0,0c0,0.3,1.5,0.4,0.2,0.9
			c-0.2,0.1-0.5,0.1-0.2,0.5c1.2,1.5-0.1,1.6-1.3,1.8c0.9,0.7,0.9,1.6,1.2,2.4c0.1,0.3,0.5,0.7,0.1,1c-0.5,0.4-0.9-0.1-1.1-0.4
			c-0.5-0.5-1-1-0.5-1.7c0.4-0.5,0.1-0.6-0.2-0.8c-0.4-0.3-0.9-0.6-1.3-0.2c-0.6,0.5-0.7,1.2-0.9,1.9c-0.2,0.7,0.6,0.4,0.9,0.6
			c0.5,0.4,1.5,0.2,1.5,1.2c0,0.2-0.4,0.6,0,0.6c1.7,0,2.5,1.3,3.3,2.3c0.3,0.3,0.6,0.4,0.9,0.2c0.3-0.3,0.6-0.7,0.7-1.1
			c0.2-0.5-0.3-0.5-0.6-0.6c-0.8-0.4-1.7-0.7-2.6-1c-0.2-0.1-0.4-0.3-0.6-0.4c2.1-0.1,1.6-0.9,1.1-1.7c-0.4-0.6-0.5-1.2,0.4-1.7
			c0.1,0.5,0.3,1,0.4,1.5s0.1,1.1,0.6,1.2c0.6,0.1,0.7-0.6,0.9-0.9c0.2-0.4,0.3-1.1,0.8-0.9c1,0.3,2.1,0.8,2.4,1.8
			c0.2,1-1,0.7-1.6,1c-0.1,0-0.1,0.1-0.2,0.2c0.2,0.5,1.1,0.1,1.2,0.8c-0.1,0.3-1.3,0-0.4,0.8c0.3,0.3,0.8,0.6,0.5,1.1
			c-0.3,0.6-0.9,0.3-1.3,0.3S24,207,23.6,207s-0.9-0.1-1,0.3c-0.2,0.4,0.3,0.7,0.6,0.9c2.2,1.4,4.6,0.8,7,1.2c-0.2-1-1.3-1-1.2-1.8
			c0.8,0.5,1.6-0.9,2.3,0.1c0.1-0.1,0.3-0.2,0.3-0.3c0.5-1.2,1-1.3,2.1-0.5c0.5,0.4,0.7,1.3,1.8,1.3c-0.5-0.7-0.9-1.2-1.3-1.8
			c0.1-0.1,0.1-0.2,0.1-0.3c0.4,0.2,0.8,0.3,1.2,0.5c2.3,1.2,2.4,2,0.3,3.6c0.6,0.3,1.2,0.5,1.8,0.8c0.7,0.3,1.4,0.1,2.1,0.1
			c1.6,0,2.8,1.2,2.7,2.6c-0.6,0.2-1.1,0.4-1.7,0.3c-1.1-0.3-2.3-0.5-3.7-0.2C38.3,214.8,39.4,214.8,40.5,214.7z M11.6,177.2
			c0.6-0.6,1.1,0.3,1.7,0.2c0.4-0.1,1.1,0,0.9-0.6c-0.2-0.8,0.2-2.3-1.6-1.9c-0.7,0.2-1.4,0.1-2,0.1
			C10.2,176.2,11.9,176.3,11.6,177.2c-1.2-0.4-2,0.1-2.6,1.1C9.9,177.9,11,178.2,11.6,177.2z M17,209.9c-0.3,0.2-1.3,0.1-0.3,1
			c6.3,5.4,12.4,11,20.4,13.8c1.2,0.4,2.3,0.7,3.6,0c-0.8-1-1.8-1.3-2.8-1.2c-0.9,0-1.7-0.2-2.3-0.7c-1.3-1-3.2-0.9-4.3-2.3
			c-0.1-0.1-0.4-0.2-0.6-0.2c-1.4,0.2-2.2-0.6-3-1.6c-0.4-0.6-0.9-1.3-1.7-1.6c-2.1-0.8-3.6-2.4-5.5-3.5
			C19,212.7,17.9,211.4,17,209.9c0.6-0.7-0.2-1-0.5-1.3c-0.7-0.9-1.6-1.7-2-2.7c-0.5-1.2-1.3-2-2.1-2.8c-0.3-0.3-0.8-0.4-0.7,0.1
			c0.1,1.7-0.7-0.4-0.9,0.6C12.7,205.7,14.8,207.8,17,209.9z M14.8,186.9c1.4-0.4,2-1.8,3.4-2.3c3.3-1.3,6.1-3.2,8.9-5.3
			c0.9-0.7,1.5-1.6,1.7-2.7c0.2-1.4-0.5-2-1.8-1.5c-1.6,0.6-3.2,1.1-4.6,2.1c0.6,0.4,1.3,0.6,1.2,1.4c-0.1,0.4-0.6,0.5-1,0.5
			c-1-0.1-0.7-1-0.9-1.7c-4.9,2.6-8.9,6.4-14,9.3c1.2,0.2,2,0.3,2,1.4c0,0.1,0.9,0,0.8,0.5c-0.1,0.6-0.7,0.6-1.2,0.7
			c-1,0.1-2.1,0.3-2.5-1c-0.2-0.6-0.6-0.4-0.9-0.2c-0.6,0.4-1.3,0.9-1.8,1.4c-1.9,1.7-1.5,3.6,0.9,4.6c-1.3-3.1-1.1-4,1.2-4.6
			c-1,1.2-0.5,2,0.8,2.3c0.8,0.2,2.1,0.8,2.3-0.6c0.1-0.8,0.5-0.9,0.9-1.3c0.7-0.6,1.6,0,1.9-0.2C13.2,189.2,14.5,188.4,14.8,186.9
			L14.8,186.9z M76.1,221.5c-6.4,1.5-12.3,4.6-19.3,5c1.4-1,2.9-0.5,4-1.4c-0.2-0.1-0.3-0.2-0.5-0.2c-0.4,0-0.8,0-1.1,0.1
			c-4.4,1-8.8,1.7-13.3,0.7c-0.3-0.1-0.5-0.1-0.8,0c-0.3,0-0.6,0.1-0.6,0.4c0,0.3,0.3,0.4,0.6,0.4c2.2,0.3,4.4,0.8,6.6,1
			c5,0.4,9.8-1.2,14.6-2.2C69.7,224.6,73.1,223.5,76.1,221.5z M32.6,210.5c-0.8,0.1-1.6,0-2.5,0.2c-0.8,0.1-1.9,1.9-1.4,2.1
			c1,0.3,1.1,1.6,2.3,1.6c0.4,0,0.7,0.2,0.4,0.7c-0.2,0.4,0.1,0.4,0.4,0.3c1.6-0.1,3.1,0.5,4.8,0.7c-1.2-1.6-2.6-2.6-4.1-3.1
			C32.7,212.2,31.6,211.1,32.6,210.5z M10.5,180.4c1.6,0.1,2.6-0.9,3.7-0.7c0.1,0,0.2-0.1,0.2-0.2c0.5-0.8,0.5-0.8,1.4-0.3
			c0.5,0.3,1,0.7,1.5,0.3s0.4-0.9,0.2-1.5c0-0.2-0.3-0.4,0-0.5c0.4,0,0.7,0.3,1.1,0c-0.4-0.3-1-0.6-1-0.9c0-1.4-0.8-1-1.4-0.6
			C14.5,177.5,12.7,178.8,10.5,180.4z M34.7,218.6c1.4,1.2,4.4,1.1,5.5,0c0.1-0.1,0.2-0.3,0.2-0.4c-0.1-0.2-0.3-0.4-0.5-0.3
			C38.2,218,36.4,217.5,34.7,218.6z M85.1,213.2c-1.1,0.2-2.1,0.4-3.1,0.7c-1.1,0.3-2.3,0.4-3.3,1.1c-0.3,0.2-0.7,0.5-0.6,0.9
			c0.2,0.5,0.7,0.2,1,0.1c1.4-0.5,2.8-0.9,4.2-1.5C84,214.2,84.8,214.2,85.1,213.2z M64.3,221.5c0.6,0.2,0.6-0.9,1.3-0.4
			c0.6,0.4,0.8-0.1,0.9-0.5c0.2-0.6-0.1-1.1-0.5-1.4c-0.5-0.3-0.8,0.2-1,0.6C64.7,220.2,64.2,220.7,64.3,221.5z M13,193.7
			c1.1,0.4,1.6-0.1,2.1-0.7c0.1-0.2,0.2-0.6-0.1-0.7c-1-0.5-1.7,0.3-2.5,0.5c0.3,0.4,0.5,0.1,0.8,0.1c0.2,0.1,0.5,0.1,0.8,0.2
			C13.7,193.3,13.4,193.5,13,193.7z M40.7,216.8c1.9,1.2,2.4,1.2,3.7,0.3C43,217,41.9,216.9,40.7,216.8z M68.5,218.9
			c-0.9,0.1-1.3,0.6-1.4,1.2c-0.1,0.4,0.6,0.6,0.7,0.4C68.1,220.1,68.3,219.6,68.5,218.9z M45.2,215.9c-1-0.1-2-0.5-3,0.4
			C43.3,216.3,44.3,216.8,45.2,215.9z"/>
		<path class="st2" d="M4.8,168.4c-0.3,1,1.9,0.6,1,1.7c-0.5,0.6-1.6,0.4-2.3,1.1c-0.9-0.8,0.7-1.5,0-2.3
			C4,168.7,4.4,168.5,4.8,168.4z"/>
		<path class="st2" d="M26.1,205.1c-0.1-0.7-1-0.3-1.2-0.8c0.1-0.1,0.1-0.2,0.2-0.2c0.6-0.3,1.8-0.1,1.6-1c-0.2-1-1.4-1.5-2.4-1.8
			c-0.5-0.2-0.6,0.5-0.8,0.9c-0.2,0.4-0.3,1.1-0.9,0.9c-0.6-0.1-0.6-0.7-0.6-1.2c-0.1-0.5-0.2-0.9-0.4-1.5c-0.9,0.4-0.8,1-0.4,1.7
			c0.4,0.8,0.9,1.5-1.1,1.7c0.2,0.1,0.4,0.3,0.6,0.4c0.9,0.3,1.7,0.7,2.6,1c0.2,0.1,0.8,0.1,0.6,0.6c-0.2,0.4-0.4,0.8-0.7,1.1
			c-0.2,0.2-0.6,0.1-0.9-0.2c-0.9-1.1-1.6-2.4-3.3-2.3c-0.4,0,0-0.4,0-0.6c0-1-1-0.9-1.5-1.2c-0.3-0.2-1.1,0-0.9-0.6
			c0.2-0.7,0.3-1.4,0.9-1.9c0.5-0.4,0.9,0,1.3,0.2c0.3,0.2,0.6,0.3,0.2,0.8c-0.5,0.7,0,1.3,0.5,1.7c0.3,0.3,0.7,0.7,1.1,0.4
			s0-0.7-0.1-1c-0.3-0.8-0.4-1.7-1.2-2.4c1.2-0.2,2.5-0.3,1.3-1.8c-0.3-0.4,0-0.4,0.2-0.5c1.3-0.6-0.2-0.6-0.2-0.9
			c0.6-1,1.8,0.1,2.5-0.9c-1.3-0.4-2.5-0.9-3.8-0.7c0,1,1.2,0.7,1.3,1.6c-0.7-0.1-1.4-0.2-2.1-0.3c-0.2,0.2,0,0.3,0.1,0.4
			c0.3,0.3,1,0.1,1,0.8c-0.6-0.1-0.4,1.3-1.3,0.7c0,1.2-1.2,0.7-1.7,1.1c-0.7,0.5-1.1,0-1.5-0.4c-0.5-0.5,0-0.9,0-1.2
			c0.1-1.4,0.8-1.9,1.9-2.5c0.8-0.4,0.8-1.3,0.1-2c-0.4-0.4-0.9-0.8-1.3-1.2c-0.4-0.5-0.5-1,0.3-1.3c1.5-0.5,2.9-0.9,2.9-3
			c0-0.2,1.2-0.4,1.3-0.7c0.5-1.6,1.9-1.5,3.5-1.7c-1-0.5-1.4-0.8-0.6-1.4c1.3-0.9,2.8-1.5,4-2.6c0.6-0.6,1.3-0.1,1.6,0.5
			c0.4,0.6,0.6,1.3,0.8,2c0.1,0.5,0.8,1.1,0.1,1.6c-0.8,0.5-1-0.6-1.5-0.9c-0.5,1.1-0.1,2.1,0.2,3.1c0.1,0.4,0.3,0.9,0.8,0.9
			c0.6,0.1,0.5-0.5,0.7-0.9c0.4-0.8,0.9-0.7,1.4-0.1c0.3,0.3,0.5,0.8,0.5,1.2c0.3,2.2,1.6,4.2,2.6,6.1c1.8,3.4,4.2,6.5,6.7,9.6
			c0.2,0.2,0.6,0.3,0.4,0.6c-0.5,0.8-1.1,1.6,0.5,1.6c0.8,0,1.1,1,2.1,0.8c0.9-0.2,1.8,0.5,2.6,1.1c1.9,1.4,3.8,2.9,5.9,3.9
			c0.9,0.5,1.3,1.7,2.4,2.2c2.4,1.1,4.9,1.4,7.4,1.2c0.9-0.1,1.7,0.1,2.5,0.5c1.7,0.9,3.4,0.5,5.2,0.6C72,217,74,216.6,76,217
			c-0.6,1.1-1.6,1.3-2.6,1.4c-1.9,0.1-3.8,0.4-5.7,0.2c-2-0.2-3.8,0.1-5.5,1.7c-0.8,0.8-2.2,2.3-3.8,0.5c-0.4-0.4-0.9,0-1.4,0.2
			c-1.1,0.5-2.1-0.1-2-1c0.1-1.6-0.7-1.1-1.5-0.9c-0.5,0.1-1.1,0.3-1.6,0.4c0.3-0.2,0.6-0.4,0.8-0.6c0.3-0.3,0.7-0.5,0.9-0.7
			c-3.6-2.6-7.7-2.8-11.9-3.1c0.2-0.3,0.5-0.5,0.7-0.8c0.1-1.5-1.1-2.6-2.7-2.6c-0.7,0-1.4,0.2-2.1-0.1c-0.6-0.2-1.2-0.5-1.8-0.8
			c2-1.5,2-2.4-0.3-3.6c-0.4-0.2-0.8-0.3-1.2-0.5c-0.2-0.1-0.4-0.1-0.5-0.2c-0.1,0.3,0.1,0.5,0.4,0.5c0.4,0.5,0.8,1.1,1.3,1.8
			c-1.1-0.1-1.3-0.9-1.8-1.3c-1.1-0.8-1.6-0.7-2.1,0.5c0,0.1-0.2,0.2-0.3,0.3c-0.7-1-1.6,0.4-2.3-0.1l0,0c-0.3-0.6-0.6-1.2-1-1.8
			C27.5,205.5,27,204.8,26.1,205.1L26.1,205.1z M28.4,199.7c-0.1-0.2-2.8-1.6-3.2-1.3c-0.3,0.2-0.9,0.4-0.8,1.1
			c0.2,0.7,2.7,2.8,3,2.5C27.8,201.5,28.8,201.2,28.4,199.7z M29.9,195.2c0,1.7,0.4,3,1.7,3.8c0.3,0.2,0.6,1.1,1.1,0.4
			c0.4-0.4,0.1-0.9-0.2-1.4C32,196.9,31.2,195.9,29.9,195.2z M19.7,191.6c0.2,0.3,0.3,0.5,0.3,0.7c0.2,0.9,0.9,1,1.6,1
			c0.3,0,0.2-0.2,0.2-0.5c0.1-1.1-0.8-0.7-1.3-0.9C20.3,191.7,20.1,191.7,19.7,191.6z M48.4,211.2c0.6,1.3,1.4,1.7,2.6,2.1
			C50.4,212.2,49.6,211.7,48.4,211.2z"/>
		<path class="st2" d="M14.9,186.9c-0.4,1.5-1.7,2.3-2.9,2.9c-0.3,0.1-1.3-0.5-1.9,0.2c-0.4,0.4-0.8,0.5-0.9,1.3
			c-0.2,1.4-1.4,0.8-2.3,0.6c-1.3-0.3-1.8-1-0.8-2.3c-2.2,0.6-2.4,1.5-1.2,4.6c-2.4-1-2.7-2.9-0.9-4.6c0.6-0.5,1.2-1,1.8-1.4
			c0.3-0.2,0.7-0.4,0.9,0.2c0.5,1.2,1.6,1,2.5,1c0.5,0,1.1-0.1,1.2-0.7c0.1-0.5-0.8-0.4-0.8-0.5c0-1-0.8-1.1-2-1.4
			c5.1-2.9,9.1-6.7,14-9.3c0.2,0.7-0.1,1.6,0.9,1.7c0.4,0,0.9-0.1,1-0.5c0.1-0.8-0.7-1-1.2-1.4c1.4-1,3-1.6,4.6-2.1
			c1.3-0.4,2,0.2,1.8,1.5c-0.2,1.1-0.8,2-1.7,2.7c-2.8,2.1-5.7,4-8.9,5.3C16.9,185.1,16.2,186.5,14.9,186.9c-0.7-0.4-1.2-1.1-2.1-1
			c-0.4,0-0.8,0.2-0.9,0.6c-0.1,0.7,0.5,0.5,0.8,0.5C13.4,187,14.2,187.4,14.9,186.9z M18.8,180.8c-0.9,0.2-2,0.2-2.8,1.5
			C17.2,181.7,18.3,181.9,18.8,180.8z"/>
		<path class="st3" d="M76.1,221.5c-3,2-6.3,3.1-9.8,3.8c-4.8,1-9.6,2.6-14.6,2.2c-2.2-0.2-4.4-0.7-6.6-1c-0.3,0-0.6-0.1-0.6-0.4
			c0-0.3,0.4-0.4,0.6-0.4c0.3,0,0.5,0,0.8,0c4.5,1,8.9,0.4,13.3-0.7c0.4-0.1,0.8-0.1,1.1-0.1c0.1,0,0.3,0.1,0.5,0.2
			c-1.1,0.9-2.6,0.4-4,1.4C63.8,226.1,69.7,223,76.1,221.5z"/>
		<path class="st3" d="M16.9,209.9c0.9,1.5,2.1,2.8,3.7,3.7c1.9,1.1,3.5,2.7,5.5,3.5c0.7,0.3,1.2,0.9,1.7,1.6c0.7,1,1.5,1.9,3,1.6
			c0.2,0,0.5,0.1,0.6,0.2c1.1,1.4,3,1.3,4.3,2.3c0.6,0.5,1.4,0.7,2.3,0.7c1,0,2,0.2,2.8,1.2c-1.2,0.8-2.4,0.4-3.6,0
			c-8-2.8-14.1-8.5-20.4-13.8C15.6,210.1,16.6,210.2,16.9,209.9L16.9,209.9z"/>
		<path class="st2" d="M32.6,210.5c-1.1,0.6,0.1,1.7-0.2,2.5c1.5,0.4,2.9,1.5,4.1,3.1c-1.7-0.2-3.2-0.7-4.8-0.7
			c-0.3,0-0.6,0.1-0.4-0.3c0.3-0.5,0-0.7-0.4-0.7c-1.2,0.1-1.3-1.3-2.3-1.6c-0.5-0.1,0.6-1.9,1.4-2.1
			C31,210.5,31.8,210.6,32.6,210.5z"/>
		<path class="st2" d="M28.9,207.9c0,0.8,1.1,0.8,1.2,1.8c-2.4-0.5-4.8,0.2-7-1.2c-0.3-0.2-0.7-0.4-0.6-0.9c0.2-0.4,0.6-0.4,1-0.3
			c0.4,0,0.9,0.1,1.3,0.1c0.5,0,1,0.2,1.3-0.3s-0.2-0.8-0.5-1.1c-0.9-0.8,0.3-0.5,0.4-0.8h-0.1c0.2,0.9,0.9,1.6,1.4,2.3
			C27.7,207.8,28.2,208.4,28.9,207.9L28.9,207.9z"/>
		<path class="st2" d="M10.5,180.4c2.2-1.6,4-2.9,5.9-4.2c0.6-0.4,1.4-0.9,1.4,0.6c0,0.3,0.6,0.6,1,0.9c-0.4,0.3-0.7-0.1-1.1,0
			c-0.3,0.1-0.1,0.4,0,0.5c0.2,0.5,0.3,1.1-0.2,1.5c-0.6,0.4-1-0.1-1.5-0.3c-0.9-0.5-0.9-0.5-1.4,0.3c0,0.1-0.2,0.2-0.2,0.2
			C13.1,179.4,12.1,180.5,10.5,180.4z"/>
		<path class="st3" d="M17,209.9c-2.1-2.1-4.2-4.2-6.2-6.2c0.2-0.9,1.1,1.2,0.9-0.6c0-0.4,0.5-0.3,0.7-0.1c0.8,0.8,1.7,1.6,2.1,2.8
			c0.4,1,1.3,1.8,2,2.7C16.8,209,17.5,209.2,17,209.9C16.9,209.9,17,209.9,17,209.9z"/>
		<path class="st2" d="M34.7,218.6c1.7-1.1,3.5-0.7,5.2-0.8c0.2,0,0.4,0.2,0.5,0.3c0,0.1-0.1,0.3-0.2,0.4
			C39.1,219.7,36.1,219.8,34.7,218.6z"/>
		<path class="st3" d="M11.7,177.3c0.2-1-1.5-1-1-2.2c0.6,0,1.3,0.1,2-0.1c1.8-0.4,1.4,1,1.6,1.9c0.1,0.6-0.5,0.5-0.9,0.6
			C12.7,177.5,12.3,176.7,11.7,177.3L11.7,177.3z"/>
		<path class="st3" d="M85.1,213.2c-0.3,1-1.2,1-1.8,1.2c-1.4,0.5-2.8,1-4.2,1.5c-0.3,0.1-0.8,0.4-1-0.1c-0.2-0.4,0.2-0.6,0.6-0.9
			c1-0.7,2.2-0.8,3.3-1.1C83,213.6,84,213.4,85.1,213.2z"/>
		<path class="st3" d="M52.6,218.6c-0.3,0.2-0.6,0.4-0.8,0.6c-0.9,0.3-1.8,0.3-2.7,0c-0.4-0.2-0.8-0.4-0.9-0.9
			c0-0.1,0.3-0.3,0.4-0.4c0.5-0.2,1.3-0.4,1.4-0.1C50.5,219.7,51.8,218.3,52.6,218.6z"/>
		<path class="st3" d="M64.3,221.5c-0.2-0.8,0.3-1.3,0.7-1.8c0.2-0.4,0.6-0.8,1-0.6c0.5,0.3,0.7,0.8,0.5,1.4
			c-0.1,0.4-0.4,0.9-0.9,0.5C65,220.6,65,221.7,64.3,221.5z"/>
		<path class="st3" d="M13,193.7c0.4-0.2,0.6-0.4,1-0.6c-0.3-0.1-0.5-0.1-0.8-0.2c-0.2-0.1-0.5,0.3-0.8-0.1c0.9-0.3,1.6-1,2.5-0.5
			c0.3,0.1,0.2,0.5,0.1,0.7C14.7,193.6,14.1,194.1,13,193.7z"/>
		<path class="st3" d="M40.7,216.8c1.2,0.1,2.4,0.2,3.7,0.3C43,218,42.6,218,40.7,216.8z"/>
		<path class="st3" d="M40.5,214.7c-1.1,0.1-2.2,0.1-3.5-0.6c1.4-0.3,2.5-0.1,3.7,0.2C40.6,214.4,40.6,214.6,40.5,214.7z"/>
		<path class="st3" d="M68.5,218.9c-0.3,0.6-0.4,1.2-0.7,1.6c-0.1,0.2-0.7,0-0.7-0.4C67.2,219.5,67.6,219,68.5,218.9z"/>
		<path class="st3" d="M11.6,177.2c-0.6,1-1.7,0.7-2.6,1.1C9.6,177.3,10.4,176.8,11.6,177.2C11.7,177.3,11.6,177.2,11.6,177.2z"/>
		<path class="st3" d="M45.2,215.9c-0.9,0.8-1.9,0.3-3,0.4C43.2,215.4,44.2,215.8,45.2,215.9z"/>
		<path class="st3" d="M42.4,214c-0.2,0.3-0.5,0.5-0.7,0.8c-0.4,0-0.8-0.1-1.2-0.1c0.1-0.1,0.2-0.3,0.2-0.4
			C41.3,214.4,41.9,214.2,42.4,214z"/>
		<path class="st1" d="M28.4,199.7c0.4,1.4-0.5,1.7-1.1,2.3c-0.3,0.3-2.8-1.8-3-2.5c-0.2-0.6,0.4-0.8,0.8-1.1
			C25.6,198.1,28.3,199.6,28.4,199.7z"/>
		<path class="st1" d="M29.9,195.2c1.3,0.7,2.1,1.7,2.7,2.8c0.2,0.4,0.5,0.9,0.2,1.4c-0.6,0.7-0.8-0.2-1.1-0.4
			C30.4,198.1,29.9,196.8,29.9,195.2z"/>
		<path class="st1" d="M28.9,207.9c-0.7,0.5-1.2-0.1-1.5-0.5c-0.5-0.7-1.1-1.4-1.4-2.3c1-0.2,1.4,0.4,1.8,1.1
			C28.3,206.7,28.6,207.3,28.9,207.9z"/>
		<path class="st1" d="M20.4,196.3c0-0.8-1.3-0.5-1.3-1.6c1.3-0.2,2.5,0.3,3.8,0.7C22.2,196.4,20.9,195.2,20.4,196.3L20.4,196.3z"/>
		<path class="st1" d="M19.7,191.6c0.4,0.1,0.6,0.2,0.9,0.3c0.5,0.2,1.4-0.1,1.3,0.9c0,0.2,0.1,0.5-0.2,0.5c-0.7,0-1.4-0.1-1.6-1
			C20,192,19.9,191.9,19.7,191.6z"/>
		<path class="st1" d="M48.4,211.2c1.2,0.5,2,1,2.6,2.1C49.8,212.9,49,212.5,48.4,211.2z"/>
		<path class="st1" d="M34.1,206.7c-0.3-0.1-0.5-0.2-0.4-0.5c0.2,0.1,0.4,0.1,0.5,0.2C34.2,206.5,34.1,206.6,34.1,206.7z"/>
		<path class="st1" d="M14.9,186.9c-0.7,0.5-1.5,0.1-2.2,0.1c-0.3,0-0.9,0.2-0.8-0.5c0.1-0.4,0.4-0.6,0.9-0.6
			C13.7,185.8,14.2,186.5,14.9,186.9C14.8,186.9,14.9,186.9,14.9,186.9z"/>
		<path class="st1" d="M18.8,180.8c-0.5,1.2-1.6,0.9-2.8,1.5C16.8,181,17.9,181,18.8,180.8z"/>
	</g>
</g>
</svg>
