<?xml version="1.0" encoding="utf-8"?>
<!-- Generator: Adobe Illustrator 25.2.3, SVG Export Plug-In . SVG Version: 6.00 Build 0)  -->
<!DOCTYPE svg PUBLIC "-//W3C//DTD SVG 1.1//EN" "http://www.w3.org/Graphics/SVG/1.1/DTD/svg11.dtd" [
	<!ENTITY ns_extend "http://ns.adobe.com/Extensibility/1.0/">
	<!ENTITY ns_ai "http://ns.adobe.com/AdobeIllustrator/10.0/">
	<!ENTITY ns_graphs "http://ns.adobe.com/Graphs/1.0/">
	<!ENTITY ns_vars "http://ns.adobe.com/Variables/1.0/">
	<!ENTITY ns_imrep "http://ns.adobe.com/ImageReplacement/1.0/">
	<!ENTITY ns_sfw "http://ns.adobe.com/SaveForWeb/1.0/">
	<!ENTITY ns_custom "http://ns.adobe.com/GenericCustomNamespace/1.0/">
	<!ENTITY ns_adobe_xpath "http://ns.adobe.com/XPath/1.0/">
]>
<svg version="1.1" id="Layer_1" xmlns:x="&ns_extend;" xmlns:i="&ns_ai;" xmlns:graph="&ns_graphs;"
	 xmlns="http://www.w3.org/2000/svg" xmlns:xlink="http://www.w3.org/1999/xlink" x="0px" y="0px" viewBox="0 0 151.2 144.1"
	 style="enable-background:new 0 0 151.2 144.1;" xml:space="preserve">
<style type="text/css">
	.st0{fill:#72C162;}
</style>
<metadata>
	<sfw  xmlns="&ns_sfw;">
		<slices></slices>
		<sliceSourceBounds  bottomLeftOrigin="true" height="144.1" width="151.2" x="196.4" y="-305.4"></sliceSourceBounds>
	</sfw>
</metadata>
<path class="st0" d="M151.2,140.8c-6.6,1.2-13.3,2.1-20,2.6c-10.3,0.7-22.8,1.9-31.9-3.8C85.2,130.7,86.8,112,77,100.1
	c-6-7.3-16.1-8.5-25-8.8c-9.2-0.3-18.4,0.2-27.4-1.9c-8.1-1.9-15.8-5.9-20.4-13c-5.4-8.2-4.9-18.7-2.1-27.8
	c3.5-11,11-20.3,14.3-31.4C17.9,11.9,18,5.1,15.5,0L26,0c2.2,8.1,1.2,17.6-1.9,25.1c-6,14.5-26.1,40.8-4.5,52
	c15.8,8.2,35.1,1.2,51.6,7.3c8,3,14.1,8.6,17.9,16.2c3.5,7.1,5.2,14.9,8.7,22c1.7,3.4,3.8,6.7,7.1,8.6c5.3,3.1,12,2.7,17.9,2.5
	c9.6-0.2,19-1.3,28.4-3.1"/>
</svg>
