<?xml version="1.0" encoding="utf-8"?>
<!-- Generator: Adobe Illustrator 25.2.3, SVG Export Plug-In . SVG Version: 6.00 Build 0)  -->
<svg version="1.1" id="Layer_1" xmlns="http://www.w3.org/2000/svg" xmlns:xlink="http://www.w3.org/1999/xlink" x="0px" y="0px"
	 viewBox="0 0 244.1 275.6" style="enable-background:new 0 0 244.1 275.6;" xml:space="preserve">
<style type="text/css">
	.st0{fill:#FFFFFF;}
</style>
<path class="st0" d="M170,0.7c-5.2-2.8-8.3,3.7-8.3,3.7l-55.1,112.3c-18.5,31.2-22,30-22,30c-3.4-1.9,0.1-11.2,0.1-11.2l20.1-47.9
	c24.6-45.8,6.5-48.2,6.5-48.2C81,34.9,71,122.8,71,122.8c-3.7,28.5-23.9,58.4-23.9,58.4c-31.4,50.9-41.2,15.4-41.2,15.4
	c-6.8,1.7-5.9,6.1-5.9,6.1c30.7,67,73.8-42.4,73.8-42.4c15.7,32.1,52.6-53.3,52.6-53.3c-26,83.7-26.6,146.1-26.6,146.1
	c-0.7,11.4,6,13,6,13c9.4,1.9,9.2-8.4,9.2-8.4c7.6-157.7,57.2-246.8,57.2-246.8C175.5,3.5,170,0.7,170,0.7z M101.9,57.9
	c0,0-7.2,25.1-13.7,32.8C88.2,90.7,92.5,67.5,101.9,57.9z"/>
<path class="st0" d="M23.5,165.7c0,0,20.3,15.3,65.9,28.5c0,0,5.9,1,6,5.1c0,0,0.6,7.2-6,6c0,0-50.2-15.3-70.4-32.9
	c0,0-4.7-3.3-4-5.7C15,166.8,15.5,161.2,23.5,165.7z"/>
<path class="st0" d="M23.2,169.7c0,0,47.8,54.3,88.7,86.2c0,0,3.8,4.6,1.2,7.8c0,0-6,5.9-10.6,0.5c0,0-64.1-51.4-87.2-92.2
	c0,0-1.4-5.5,0.7-7C16.1,164.9,20.2,161,23.2,169.7z"/>
<path class="st0" d="M199.5,97.3c-2.9-17.7-9.3-34.2-17.8-50c-4.4-8.2-16.9-0.9-12.5,7.3c17.2,32.2,22.9,69,13.2,104.5
	c-8.6,30.9-27.7,57.9-54.1,76.3c-7.6,5.3-0.4,17.8,7.3,12.5C184.2,214.2,209,155.6,199.5,97.3z"/>
<path class="st0" d="M215.4,30c-1.8-3.1-6.3-4.6-9.4-2.5c-4.5,3-9.3,5.8-14.1,8.3c-3.3,1.7-4.3,6.4-2.5,9.5c2,3.3,6.1,4.4,9.4,2.5
	c4.9-2.5,9.6-5.2,14.1-8.3C216.1,37.5,217.2,33.3,215.4,30z"/>
<path class="st0" d="M233.8,76.7c-1.1-3.4-5.2-5.8-8.7-4.5c-5.1,2-10.3,3.6-15.6,5c-3.6,0.9-5.6,5.3-4.5,8.7
	c1.2,3.6,5.1,5.6,8.7,4.5c5.3-1.4,10.5-3,15.6-5C232.9,84.2,234.9,80.4,233.8,76.7z"/>
<path class="st0" d="M244.1,122.3c-0.2-3.6-3.6-6.9-7.3-6.5c-5.4,0.7-10.9,1-16.4,1c-3.7,0-6.7,3.8-6.5,7.3c0.3,3.8,3.5,6.6,7.3,6.5
	c5.5,0,10.9-0.3,16.4-1C241.4,129.3,244.2,126.1,244.1,122.3z"/>
<path class="st0" d="M236.2,168.7c0.9-3.4-1.2-7.7-4.9-8.5c-5.4-1.1-10.6-2.5-15.8-4.2c-3.5-1.2-7.5,1.4-8.5,4.9
	c-0.9,3.7,1.2,7.4,4.9,8.5c5.2,1.7,10.5,3.2,15.9,4.2C231.5,174.5,235.2,172.3,236.2,168.7z"/>
<path class="st0" d="M222.7,210.1c1.7-3.1,0.6-7.8-2.8-9.4c-5-2.3-9.8-4.9-14.4-7.7c-3.2-2-7.7-0.3-9.4,2.8
	c-1.7,3.4-0.5,7.5,2.8,9.4c4.7,2.9,9.5,5.5,14.4,7.7C216.7,214.6,220.9,213.3,222.7,210.1z"/>
<path class="st0" d="M192.5,250.2c2.3-2.7,2.2-7.5-0.7-9.8c-4.4-3.3-8.5-6.9-12.4-10.7c-2.7-2.6-7.4-2-9.8,0.7
	c-2.4,2.9-2.1,7.2,0.7,9.7c3.9,3.8,8.1,7.4,12.4,10.7C185.7,253.3,190,253,192.5,250.2z"/>
<path class="st0" d="M164.5,274.1c2.8-2.3,3.5-7,1-9.7c-3.7-4-7.2-8.2-10.4-12.7c-2.2-3-7-3.2-9.7-1c-2.9,2.4-3.4,6.8-1,9.7
	c3.2,4.4,6.7,8.7,10.4,12.7C157.2,275.9,161.5,276.4,164.5,274.1z"/>
</svg>
